<svg width="24" height="24" viewBox="0 0 24 24" fill="none" xmlns="http://www.w3.org/2000/svg">
<path d="M6.34328 17.6569C7.51485 18.8284 9.41435 18.8284 10.5859 17.6569L14.1215 14.1213C14.512 13.7308 14.512 13.0976 14.1215 12.7071C13.7309 12.3166 13.0978 12.3166 12.7072 12.7071L9.17171 16.2426C8.78118 16.6332 8.14802 16.6332 7.75749 16.2426C7.36697 15.8521 7.36697 15.219 7.75749 14.8284L11.293 11.2929C12.4646 10.1213 14.3641 10.1213 15.5357 11.2929C16.7072 12.4645 16.7072 14.364 15.5357 15.5355L12.0001 19.0711C10.0475 21.0237 6.88169 21.0237 4.92907 19.0711C2.97644 17.1184 2.97644 13.9526 4.92907 12L12.0001 4.92893C13.9528 2.97631 17.1186 2.97631 19.0712 4.92893C21.0238 6.88155 21.0238 10.0474 19.0712 12C18.6807 12.3905 18.0475 12.3905 17.657 12C17.2665 11.6095 17.2665 10.9763 17.657 10.5858C18.8286 9.41421 18.8286 7.51472 17.657 6.34315C16.4854 5.17157 14.5859 5.17157 13.4143 6.34315L6.34328 13.4142C5.17171 14.5858 5.17171 16.4853 6.34328 17.6569Z" fill="#999999"/>
</svg>
