<svg width="24" height="24" viewBox="0 0 24 24" fill="none" xmlns="http://www.w3.org/2000/svg">
<path fill-rule="evenodd" clip-rule="evenodd" d="M20 12C20 16.4183 16.4183 20 12 20C7.58172 20 4 16.4183 4 12C4 7.58172 7.58172 4 12 4C16.4183 4 20 7.58172 20 12ZM22 12C22 17.5228 17.5228 22 12 22C6.47715 22 2 17.5228 2 12C2 6.47715 6.47715 2 12 2C17.5228 2 22 6.47715 22 12ZM7.5 12C8.32843 12 9 11.3284 9 10.5C9 9.67157 8.32843 9 7.5 9C6.67157 9 6 9.67157 6 10.5C6 11.3284 6.67157 12 7.5 12ZM18 10.5C18 11.3284 17.3284 12 16.5 12C15.6716 12 15 11.3284 15 10.5C15 9.67157 15.6716 9 16.5 9C17.3284 9 18 9.67157 18 10.5ZM7.52705 15.2369C7.22328 14.6306 7.73411 14 8.41222 14C8.8668 14 9.25699 14.2987 9.5112 14.6756C10.0502 15.4746 10.9637 16 12 16C13.0363 16 13.9499 15.4746 14.4888 14.6756C14.7431 14.2987 15.1332 14 15.5878 14C16.2659 14 16.7768 14.6306 16.473 15.2369C15.652 16.8753 13.9574 18 12 18C10.0427 18 8.348 16.8753 7.52705 15.2369Z" fill="#999999"/>
</svg>
