<svg width="22" height="22" viewBox="0 0 22 22" fill="none" xmlns="http://www.w3.org/2000/svg">
<path d="M10.7622 0.731763C10.8371 0.501435 11.1629 0.501435 11.2378 0.731763L13.638 8.11905C13.6715 8.22206 13.7675 8.2918 13.8758 8.2918H21.6433C21.8854 8.2918 21.9861 8.6017 21.7902 8.74405L15.5062 13.3096C15.4186 13.3733 15.3819 13.4861 15.4154 13.5892L17.8157 20.9764C17.8905 21.2068 17.6269 21.3983 17.4309 21.2559L11.1469 16.6904C11.0593 16.6267 10.9407 16.6267 10.8531 16.6904L4.56905 21.2559C4.37312 21.3983 4.1095 21.2068 4.18434 20.9764L6.58462 13.5892C6.61808 13.4861 6.58142 13.3733 6.4938 13.3096L0.209797 8.74405C0.0138683 8.6017 0.114562 8.2918 0.356743 8.2918H8.1242C8.2325 8.2918 8.32849 8.22206 8.36196 8.11905L10.7622 0.731763Z" fill="#E5E5E5"/>
</svg>
