<svg width="8" height="40" viewBox="0 0 8 40" fill="none" xmlns="http://www.w3.org/2000/svg">
<path fill-rule="evenodd" clip-rule="evenodd" d="M4 6C5.10458 6 6 5.10458 6 4C6 2.89542 5.10458 2 4 2C2.89542 2 2 2.89542 2 4C2 5.10458 2.89542 6 4 6ZM5 7.87399C6.72522 7.42996 8 5.86383 8 4C8 1.79086 6.20914 0 4 0C1.79086 0 0 1.79086 0 4C0 5.86383 1.27478 7.42996 3 7.87399V32.126C1.27478 32.57 0 34.1362 0 36C0 38.2091 1.79086 40 4 40C6.20914 40 8 38.2091 8 36C8 34.1362 6.72522 32.57 5 32.126V7.87399ZM4 38C5.10458 38 6 37.1046 6 36C6 34.8954 5.10458 34 4 34C2.89542 34 2 34.8954 2 36C2 37.1046 2.89542 38 4 38Z" fill="#1581DD"/>
</svg>
