<svg width="40" height="40" viewBox="0 0 40 40" fill="none" xmlns="http://www.w3.org/2000/svg">
<path d="M0.360992 37.8542C-0.127163 38.3424 -0.118755 39.1422 0.3694 39.6304C0.857555 40.1185 1.65742 40.127 2.14557 39.6388L19.9997 21.7847L37.854 39.639C38.3421 40.1272 39.142 40.1188 39.6302 39.6306C40.1183 39.1425 40.1267 38.3426 39.6386 37.8545L21.7842 20.0001L39.6386 2.14576C40.1268 1.6576 40.1184 0.857741 39.6302 0.369585C39.142 -0.11857 38.3422 -0.126979 37.854 0.361176L19.9997 18.2155L2.14555 0.36142C1.65739 -0.126735 0.857527 -0.118328 0.369372 0.369828C-0.118784 0.857983 -0.127193 1.65785 0.360963 2.146L18.2151 20.0001L0.360992 37.8542Z" fill="white"/>
</svg>
