<svg width="18" height="18" viewBox="0 0 18 18" fill="none" xmlns="http://www.w3.org/2000/svg">
<path d="M12.4999 10.9999H11.7099L11.4299 10.7299C12.6299 9.32989 13.2499 7.41989 12.9099 5.38989C12.4399 2.60989 10.1199 0.389893 7.3199 0.0498932C3.0899 -0.470107 -0.460103 3.08989 0.0498967 7.31989C0.389897 10.1199 2.6099 12.4399 5.3899 12.9099C7.4199 13.2499 9.3299 12.6299 10.7299 11.4299L10.9999 11.7099V12.4999L15.2599 16.7499C15.6699 17.1599 16.3299 17.1599 16.7399 16.7499L16.7499 16.7399C17.1599 16.3299 17.1599 15.6699 16.7499 15.2599L12.4999 10.9999ZM6.4999 10.9999C4.0099 10.9999 1.9999 8.98989 1.9999 6.49989C1.9999 4.00989 4.0099 1.99989 6.4999 1.99989C8.9899 1.99989 10.9999 4.00989 10.9999 6.49989C10.9999 8.98989 8.9899 10.9999 6.4999 10.9999ZM6.4999 3.99989C6.2199 3.99989 5.9999 4.21989 5.9999 4.49989V5.99989H4.4999C4.2199 5.99989 3.9999 6.21989 3.9999 6.49989C3.9999 6.77989 4.2199 6.99989 4.4999 6.99989H5.9999V8.49989C5.9999 8.77989 6.2199 8.99989 6.4999 8.99989C6.7799 8.99989 6.9999 8.77989 6.9999 8.49989V6.99989H8.4999C8.7799 6.99989 8.9999 6.77989 8.9999 6.49989C8.9999 6.21989 8.7799 5.99989 8.4999 5.99989H6.9999V4.49989C6.9999 4.21989 6.7799 3.99989 6.4999 3.99989Z" fill="white"/>
</svg>
