<svg width="90" height="66" viewBox="0 0 90 66" fill="none" xmlns="http://www.w3.org/2000/svg">
<path fill-rule="evenodd" clip-rule="evenodd" d="M43.8147 30.183C43.9846 30.2868 44.1548 30.3907 44.3252 30.4945C44.4497 30.5818 44.571 30.6489 44.6522 30.4567C44.6625 30.3825 44.677 30.2761 44.6136 30.2507C43.8273 29.9379 43.9629 29.0917 43.3193 28.6923C43.0573 28.5297 42.9772 28.2625 43.1199 28.0152C43.2692 27.7573 43.5245 27.6232 43.9098 27.6798C44.4916 27.7654 44.1582 27.4905 44.0878 27.3249C44.0343 27.1096 43.8659 26.9524 43.7022 26.7928C43.6124 26.6472 43.346 26.4989 43.6018 26.3372C43.8509 26.1796 43.9673 26.4316 44.116 26.5378C44.4054 26.7449 44.5676 27.0468 44.9013 27.2331C45.1159 27.3531 45.3156 27.3857 45.5551 27.3944C45.9408 27.4083 46.0636 27.2704 45.9679 26.9669C45.9462 26.8977 45.9643 26.986 45.9545 26.9144C45.9123 26.5966 45.6136 26.1835 46.1661 26.0302C46.6554 25.8945 47.0142 26.2449 47.3499 26.5C47.532 26.6381 47.6352 26.8397 47.7084 27.0386C48.286 26.8664 48.6856 26.533 49.1444 26.2779C49.4434 26.1121 49.7647 26.0422 50.0063 26.2883C50.2561 26.5425 50.2189 26.8043 49.8487 27.0171C49.6095 27.1547 49.5451 27.4536 49.2368 27.5494C49.1602 27.9395 49.3684 27.8715 49.6395 27.7306C50.2582 27.4091 50.8709 27.0835 51.4105 26.6665C51.5967 26.5226 51.8173 26.3878 52.0517 26.3146C52.4699 26.1841 52.8475 26.2262 52.8713 26.6964C52.8861 26.9871 52.9758 27.0559 53.2847 26.8992C53.5006 26.7896 53.7471 26.7555 53.9207 26.9522C54.0805 27.1336 54.0081 27.3314 53.8793 27.5094C53.6126 27.8778 53.3369 28.2419 53.0736 28.6118C53.0226 28.6836 52.957 28.798 52.9908 28.8523C53.0656 28.9725 53.213 28.9115 53.3304 28.8742C53.6512 28.7724 53.9662 28.6563 54.2911 28.5649C54.5324 28.4969 54.767 28.5301 54.9214 28.7194C55.0929 28.9293 54.9555 29.0945 54.7789 29.2422C54.3837 29.5719 54.0019 29.9145 53.5198 30.1606C53.4321 30.2067 53.2841 30.2594 53.3157 30.3391C53.555 30.9408 53.0413 30.9981 52.5685 31.0919C52.3571 31.1809 52.1494 31.2701 52.1965 31.5174C52.3041 32.094 52.7831 32.5381 52.9839 33.0808C53.0296 33.1166 53.0757 33.1525 53.1212 33.1885C53.2306 33.3285 53.3439 33.4993 53.1321 33.6085C52.9282 33.7136 52.8543 33.5245 52.7676 33.406C52.5369 33.0906 51.9922 33.0478 51.8867 32.6877C52.2084 33.1726 52.5501 33.6999 52.7601 34.2693C52.9712 34.842 52.7149 35.051 51.9891 34.9668C51.629 34.5811 50.9382 34.4708 50.7972 33.9741C50.9659 34.204 51.1107 34.4968 51.1865 34.8129L51.1867 34.8131C51.3414 35.0495 51.5419 35.2627 51.6893 35.503C51.7721 35.6372 51.8274 35.7837 51.6971 35.907C51.5357 36.059 51.329 35.9995 51.1684 35.9072C50.5849 35.5716 50.0076 35.226 49.5337 34.7793C49.3012 34.5602 49.0694 34.4028 48.7099 34.5947C48.6401 34.6319 48.5477 34.6573 48.4626 34.6464C47.9122 34.5767 47.4179 34.4387 47.4906 35.2375C47.5196 35.5558 46.9617 35.4101 46.6694 35.2382C46.1296 34.8357 45.6056 34.4165 44.8314 34.3475C44.5078 34.3184 44.3402 34.1287 44.3485 33.866C44.3625 33.4236 44.1209 33.2497 43.6072 33.2929C43.3832 33.3118 43.1931 33.2304 43.0527 33.0776C42.8564 32.6054 43.2456 32.3471 43.6129 32.1369C44.0169 31.9058 44.0539 31.7173 43.682 31.4636C43.6414 31.4243 43.6005 31.385 43.5596 31.3455C43.4119 31.1681 43.2485 30.9936 43.1551 30.7939C42.957 30.369 43.2606 30.0966 43.8147 30.183Z" fill="#C7C8CD"/>
<path fill-rule="evenodd" clip-rule="evenodd" d="M34.5245 44.005C35.2585 45.1072 35.9298 46.115 36.6008 47.1229C36.2275 45.8958 35.7629 44.7348 34.5245 44.005ZM15.1989 35.4724C16.2034 35.4724 17.2257 35.3508 18.208 35.503C19.4514 35.696 20.6882 36.0329 21.8807 36.4499C23.5511 37.034 25.1846 37.7323 26.8199 38.4176C27.3315 38.6318 27.7972 38.9615 28.284 39.2383C28.3159 39.1899 28.3478 39.1417 28.3794 39.093C27.6582 38.5169 26.9312 37.9481 26.2178 37.3621C25.4628 36.7421 24.73 36.0934 23.9701 35.4799C23.4526 35.062 22.8803 34.7122 22.3836 34.2714C22.1865 34.0965 21.9697 33.6969 22.0391 33.5059C22.187 33.0979 22.6201 33.0502 22.9914 33.2149C23.8799 33.6092 24.7637 34.018 25.63 34.4615C27.0224 35.1747 28.4047 35.9099 29.7798 36.6578C30.3777 36.983 30.9559 37.3486 31.5268 37.722C32.3277 38.2459 33.1082 38.8021 33.9064 39.3303C35.706 40.5209 37.12 42.0662 38.1475 44.0052C38.6762 45.0027 39.3083 45.9419 39.8964 46.9056C39.9418 46.9805 40.0084 47.0417 40.1814 47.0511C40.052 46.7064 39.9566 46.3429 39.7874 46.0204C39.1438 44.7926 38.3921 43.6162 37.8404 42.3473C37.2439 40.975 36.3728 39.8554 35.3103 38.876C34.4439 38.0777 33.5071 37.3602 32.6293 36.5739C32.2084 36.1967 31.8287 35.7622 31.4802 35.3132C31.374 35.1769 31.4335 34.9044 31.4171 34.6944C31.6468 34.6821 31.9389 34.5703 32.0952 34.6742C32.8768 35.193 33.6296 35.7593 34.3799 36.3261C35.2208 36.9618 36.0503 37.6133 36.8807 38.2635C37.2533 38.5554 37.6159 38.8608 38.0842 39.0783C37.641 38.3148 37.1966 37.5519 36.756 36.7869C36.6177 36.5472 36.4433 36.315 36.3707 36.0544C36.3093 35.8349 36.2825 35.4768 36.4028 35.3662C36.546 35.2344 36.8783 35.239 37.0991 35.2997C37.3079 35.357 37.483 35.5567 37.6639 35.7054C37.8578 35.8648 38.0408 36.038 38.2686 36.2408C38.4985 35.7877 38.7137 35.7439 39.1607 35.9609C41.1995 36.9504 42.6055 38.5872 43.7912 40.4822C44.0748 40.9352 44.4165 41.3493 44.7053 41.799C44.8496 42.0238 44.935 42.2885 44.9352 42.6185C43.1434 40.6751 41.3521 38.7312 39.5603 36.7878C39.519 36.8228 39.4775 36.8575 39.4361 36.8921C39.8734 37.4493 40.314 38.0035 40.7471 38.5643C41.3715 39.3727 42.1382 40.0763 42.5017 41.0776C42.5218 41.133 42.5666 41.1785 42.5891 41.2335C42.7269 41.5731 43.0133 41.9662 42.62 42.2545C42.2099 42.5554 41.9711 42.0912 41.781 41.8407C41.3181 41.2303 40.9614 40.5332 40.4823 39.9385C39.6219 38.8707 38.7034 37.8525 37.8093 36.8136C37.7561 36.8526 37.7031 36.8919 37.6496 36.9309C37.91 37.3575 38.1554 37.7949 38.4336 38.209C39.325 39.5374 40.2791 40.8252 41.1121 42.1907C41.8091 43.3329 42.3709 44.5621 42.992 45.7532C43.0288 45.8241 43.078 45.8922 43.0956 45.9679C43.1832 46.3422 43.4427 46.7664 42.9723 47.0424C42.4949 47.323 42.2209 46.975 41.9734 46.6103C41.7892 46.3391 41.5914 46.0775 41.3996 45.8118C41.3537 45.8342 41.3073 45.8566 41.2611 45.8785C41.3729 46.2608 41.518 46.6365 41.59 47.0265C41.7882 48.1042 41.9682 49.186 42.1304 50.2702C42.2028 50.7517 41.8829 50.9791 41.4941 50.8808C41.1657 50.7977 40.7968 50.5804 40.6002 50.3058C39.9819 49.4418 39.4363 48.5226 38.7791 47.4941C38.9814 48.367 39.1726 49.1017 39.3172 49.8457C39.4461 50.5093 39.7949 51.1915 39.223 51.8411C39.163 51.9091 39.2816 52.1772 39.3568 52.3318C40.4321 54.5428 41.2646 56.8605 41.8194 59.2498C42.2275 61.0077 42.3064 62.8468 42.5188 64.6514C42.5441 64.8651 42.5061 65.0929 42.4639 65.3073C42.3346 65.9666 42.0875 66.12 41.4704 65.9158C40.5055 65.5968 39.7473 64.9877 39.0001 64.2785C37.8538 63.191 37.0836 61.8505 36.3739 60.4876C35.5975 58.9973 35.0221 57.3967 34.3578 55.8445C34.0447 55.1132 33.7194 54.3872 33.4161 53.6516C32.7885 52.128 32.1866 50.5932 31.5432 49.0769C31.2723 48.4381 30.9294 47.831 30.6071 47.2161C30.1658 46.3742 29.7547 45.5119 29.2564 44.7064C28.3665 43.2674 27.3557 41.9318 26.2002 40.6867C24.6367 39.0017 22.7645 37.8246 20.7376 36.9211C19.6468 36.4345 18.414 36.2755 17.2365 36.0074C16.5603 35.8532 15.8673 35.7769 15.1815 35.6654C15.1871 35.6011 15.1932 35.5367 15.1989 35.4724Z" fill="#AD251D"/>
<path fill-rule="evenodd" clip-rule="evenodd" d="M22.3774 47.1646C22.6641 47.5416 22.9382 47.9265 23.2403 48.2935C23.8225 49.0012 24.6113 49.5955 24.8117 50.509C24.8461 50.6647 24.7886 50.836 24.7733 51C24.5777 50.9555 24.3119 50.9673 24.1988 50.8571C23.7489 50.419 23.3298 49.9533 22.932 49.4768C22.6044 49.0849 22.2378 48.7611 21.5837 48.5262C21.8069 49.0569 21.9753 49.4577 22.1803 49.9453C21.3568 49.7789 20.6834 49.6427 20.0101 49.5065L20 49.3946H21.4167C21.1748 48.2599 21.1748 48.2599 21.9404 48.0547C21.5495 47.6062 21.1596 47.2006 20.8289 46.7606C20.6768 46.5578 20.6409 46.2873 20.5521 46.0479C20.8334 45.9768 21.1124 45.8575 21.3963 45.8488C21.664 45.8408 21.9364 45.9492 22.3017 46.0262C21.9182 45.5881 21.5812 45.2452 21.3012 44.8691C21.1102 44.6121 20.8351 44.3289 21.1643 43.9908C21.4863 43.6605 21.8619 43.7678 22.2331 43.8917C22.7206 44.0543 23.203 44.228 23.7664 44.299C23.171 43.7188 22.5628 43.148 21.9893 42.5513C21.8565 42.4134 21.8428 42.1861 21.7744 42C21.9939 42.0182 22.2567 41.9735 22.4266 42.0642C23.8697 42.8339 25.2999 43.6232 26.7257 44.4174C27.4399 44.8154 28.1838 45.7024 28.4235 46.4752C27.6978 45.5276 26.7599 44.8058 25.6463 44.2714C25.6065 44.3061 25.5666 44.3408 25.5266 44.3757C26.3307 45.3025 27.1387 46.2266 27.937 47.1573C28.244 47.5151 28.5572 47.8732 28.8151 48.2584C29.0326 48.5837 29.1273 48.9921 28.7049 49.2281C28.2821 49.4643 27.9807 49.2059 27.6837 48.8967C27.3202 48.5182 26.8592 48.2122 26.4406 47.8747C26.3971 47.9018 26.3531 47.9289 26.309 47.9563C26.3823 48.0801 26.4698 48.199 26.5261 48.3284C26.7289 48.7956 26.9782 49.2563 27.0898 49.7408C27.1346 49.9355 26.9195 50.2381 26.7216 50.3873C26.635 50.4526 26.2292 50.3097 26.0814 50.1689C25.5472 49.659 25.101 49.0743 24.5454 48.585C23.9156 48.03 23.2037 47.5474 22.5274 47.0334C22.4775 47.0772 22.4276 47.121 22.3774 47.1646Z" fill="#AD251D"/>
<path fill-rule="evenodd" clip-rule="evenodd" d="M-0.00012207 34.7197C0.675927 34.5806 1.34383 34.4106 2.02926 34.3076C5.50827 33.7852 8.88408 34.2137 12.2364 34.9429C14.2246 35.3756 16.2384 35.7414 18.2409 36.1367C18.7653 36.24 19.2907 36.3407 19.8159 36.4425C19.8211 36.4926 19.8265 36.543 19.832 36.5931C18.9628 36.7281 18.0954 36.9677 17.2243 36.9767C15.2801 36.9966 13.3196 36.9956 11.3927 36.8269C9.34185 36.6472 7.3137 36.2927 5.29099 35.9612C3.65099 35.6923 2.03272 35.3464 0.406792 35.0287C0.266792 35.0016 0.140866 34.932 0.0085199 34.8819C0.00555694 34.8279 0.00284089 34.7737 -0.00012207 34.7197Z" fill="#AD251D"/>
<path fill-rule="evenodd" clip-rule="evenodd" d="M51 55.9424C51.5804 51.2777 52.6895 46.8418 56.0118 43.3654C55.9704 43.3152 55.9293 43.265 55.8879 43.215C55.611 43.4209 55.3009 43.5913 55.0624 43.8392C54.1399 44.7987 53.2403 45.7829 52.3315 46.7575C52.2371 46.8589 52.154 46.9997 52.0383 47.0459C51.844 47.1236 51.6281 47.1402 51.4212 47.1825C51.3982 46.9529 51.2823 46.6694 51.3685 46.5036C51.7581 45.7547 52.1393 44.982 52.6491 44.3271C53.2346 43.5748 53.9544 42.9392 54.6115 42.2481C54.7862 42.0643 54.945 41.8634 55.111 41.6702C55.0748 41.6274 55.0388 41.5841 55.0025 41.541C54.4254 42.0423 53.845 42.5391 53.2728 43.0463C52.8114 43.4548 52.368 43.8862 51.8984 44.2833C51.7808 44.3828 51.5928 44.3892 51.4373 44.4385C51.4148 44.2499 51.3178 44.0253 51.3819 43.8793C51.8498 42.8112 52.0799 41.5952 53.0361 40.8198C53.1364 40.7387 53.1989 40.6056 53.2791 40.4962C53.2505 40.4396 53.2218 40.3824 53.1933 40.3255C52.9858 40.4386 52.7721 40.5408 52.5726 40.6677C52.3596 40.803 52.1601 40.9611 51.9548 41.1096C51.9125 41.0737 51.8704 41.0378 51.8278 41.0019C52.0523 40.6286 52.2768 40.2552 52.5953 39.725C52.6152 40.018 52.622 40.115 52.6374 40.3438C53.4187 39.7978 54.1324 39.2795 54.8667 38.7968C55.1202 38.6302 55.4204 38.4754 55.7088 38.4543C56.045 38.4296 56.176 38.6946 55.9225 38.9751C55.7268 39.1916 55.4672 39.3586 55.2114 39.4969C53.7786 40.2721 52.7157 41.4161 52.0614 42.975C52.0268 43.0582 52.0411 43.1643 52.1426 43.3583C52.5523 42.983 52.9634 42.6096 53.371 42.2318C53.66 41.9636 53.9432 41.6882 54.2304 41.4178C54.5475 41.1199 54.8323 40.7632 55.191 40.5398C56.0733 39.9895 56.9694 39.4536 57.9004 39.0053C58.5112 38.7111 58.8954 38.9576 59.2773 39.5882C59.3699 39.7411 59.6135 39.9037 59.7669 39.8839C60.5559 39.7814 61.359 39.6949 62.1164 39.4581C62.7782 39.2515 63.3614 38.7629 64.023 38.5558C66.0404 37.9236 67.9771 36.9112 70.1591 37.0062C70.3146 37.0129 70.4874 36.9827 70.6203 37.0453C70.7734 37.1173 70.9851 37.263 70.9989 37.3964C71.0143 37.5478 70.8702 37.8207 70.7407 37.8657C70.3965 37.9865 70.0151 37.9815 69.6631 38.0822C68.2053 38.4989 66.7269 38.8576 65.3061 39.3871C63.8689 39.9227 62.4293 40.5192 61.1043 41.3038C59.9175 42.0064 58.8718 42.9832 57.7907 43.8756C57.3207 44.2636 56.8525 44.6908 56.498 45.1913C55.4585 46.6582 54.3464 48.094 53.5101 49.6875C52.7293 51.1755 52.2604 52.8475 51.6648 54.443C51.4738 54.9549 51.3166 55.4807 51.1438 56C51.0959 55.9807 51.0479 55.9617 51 55.9424Z" fill="#31588A"/>
<path fill-rule="evenodd" clip-rule="evenodd" d="M59.514 45.2655C59.2796 45.9968 58.5228 46.4426 58.6002 47.3451C59.581 46.5556 60.5477 45.7779 61.5142 45C61.5316 45.0732 61.5492 45.1459 61.5666 45.2186C61.8438 45.1996 62.1217 45.1596 62.3984 45.1688C62.5996 45.1754 62.7995 45.2478 63 45.291C62.938 45.5651 62.9522 45.9565 62.7981 46.0887C62.4719 46.3686 62.1807 46.5653 62.3195 47.1297C62.351 47.2579 62.14 47.4744 62.0274 47.6382C61.7827 47.9948 61.4986 48.3224 61.2933 48.7063C61.2031 48.8754 61.2656 49.153 61.2587 49.381C61.4228 49.3207 61.5865 49.2588 61.7511 49.2012C61.817 49.1782 61.8852 49.1653 61.9523 49.1477C61.9795 49.2135 62.0063 49.2794 62.0331 49.3449C61.8019 49.4405 61.5728 49.5993 61.3386 49.6101C61.1649 49.618 60.9845 49.434 60.6564 49.252C60.5512 49.4218 60.3369 49.6754 60.2195 49.9783C60.0192 50.496 59.8946 51.052 59.7063 51.5765C59.6465 51.7424 59.4849 51.8602 59.37 52C59.2922 51.7991 59.1331 51.5865 59.153 51.3988C59.2006 50.9471 59.3377 50.5087 59.4268 50.0618C59.4629 49.8798 59.4677 49.6902 59.364 49.4276C59.2391 49.5896 59.0697 49.7294 58.9985 49.9183C58.833 50.3575 58.7323 50.8289 58.5688 51.2695C58.5077 51.4349 58.3456 51.5507 58.2296 51.6895C58.1488 51.507 57.9725 51.2984 58.0036 51.1468C58.1669 50.3562 58.1543 49.592 58.1279 48.7743C58.0961 47.7715 58.2932 46.6588 58.8907 45.7758C59.0481 45.5435 59.2088 45.3142 59.3679 45.0832C59.4167 45.1438 59.4652 45.2046 59.514 45.2655Z" fill="#31588A"/>
<path fill-rule="evenodd" clip-rule="evenodd" d="M38.679 20.1737C39.5861 20.2635 41.6202 18.0654 41.4021 17.3027C40.4964 18.2574 39.6172 19.1846 38.679 20.1737ZM36.2681 21.2929C32.5599 24.9871 28.1287 26.4897 23 25.8612C25.1092 25.2831 27.2259 24.7137 29.3353 24.1181C29.9685 23.9391 30.5987 23.7262 31.2001 23.4598C32.6025 22.8381 33.9945 22.1914 35.3759 21.5237C37.6589 20.4202 39.2897 18.5444 40.7975 16.6013C41.8544 15.2387 42.6949 13.6947 43.5329 12.1761C43.9022 11.5072 44.0147 10.6971 44.2629 9.95739C44.9389 7.94354 45.6255 5.93355 46.3063 3.92139C46.6983 2.76273 47.0748 1.59849 47.4887 0.44782C47.5532 0.268111 47.7807 0.147739 47.9328 0C47.9531 0.198116 48.0335 0.412702 47.9844 0.591442C47.6613 1.77433 47.2953 2.94534 46.9723 4.12823C46.6602 5.27018 46.4043 6.42787 46.0846 7.56741C45.7488 8.76458 45.3643 9.94795 45.0102 11.1398C44.9813 11.2374 45.0212 11.3553 45.0265 11.4312H45.7558C45.7155 11.6901 45.737 11.9807 45.6248 12.2028C44.9861 13.4654 44.3445 14.7282 43.6425 15.9554C43.3379 16.4882 42.8776 16.9295 42.5071 17.4265C42.4036 17.5655 42.3672 17.7551 42.3001 17.9215C42.3523 17.9537 42.4048 17.9862 42.4568 18.0184C42.9262 17.6706 43.3955 17.3228 43.8649 16.975C43.9078 17.014 43.9504 17.0528 43.9935 17.0915C42.5914 19.1233 40.9285 20.9531 39.4077 22.9115C41.5824 21.2977 43.343 19.2146 45.4989 17.5652C45.4524 18.2681 45.2129 18.8884 44.7285 19.3669C43.752 20.3323 42.7447 21.2658 41.7437 22.2057C41.3416 22.5833 40.6957 22.8761 40.5645 23.3264C40.3743 23.9798 39.9434 24.0687 39.4255 24.2041C39.6918 23.8984 39.9581 23.5925 40.2246 23.2869C40.1752 23.2275 40.1261 23.1684 40.077 23.1096C38.8817 23.9401 37.6861 24.7706 36.3868 25.6735C36.3495 24.9648 36.7857 24.7098 37.0789 24.4063C37.7689 23.6918 38.5169 23.0348 39.211 22.3244C40.1008 21.4135 40.9613 20.4733 41.8318 19.543C41.8667 19.5055 41.8737 19.4411 41.9435 19.2599C41.5846 19.4125 41.2855 19.4779 41.0614 19.645C39.5274 20.7874 38.0013 21.94 36.4898 23.112C35.613 23.7921 34.7788 24.5281 33.9028 25.2094C33.6403 25.4134 33.3115 25.5495 32.9927 25.6524C32.8615 25.6948 32.6761 25.5674 32.5153 25.5173C32.5786 25.3814 32.6061 25.1973 32.7115 25.1184C33.1687 24.7752 33.6589 24.4763 34.1182 24.135C34.6628 23.7306 35.2524 23.3576 35.7004 22.8596C36.0324 22.4908 36.1694 21.9446 36.3933 21.4774C36.3516 21.4159 36.3098 21.3544 36.2681 21.2929Z" fill="#058C50"/>
<path fill-rule="evenodd" clip-rule="evenodd" d="M34.9364 15.0202C34.6288 15.0202 34.3201 15.0028 34.0139 15.0243C33.5784 15.0552 33.3799 14.8488 33.5288 14.4174C33.7258 13.847 33.9878 13.3017 34.2097 12.775C33.8257 12.7499 33.4128 12.7231 33 12.6962C33.007 12.5818 33.0145 12.4673 33.0215 12.3528C33.097 12.7904 33.3096 12.9015 33.6632 12.6955C33.9268 12.5419 34.1739 12.356 34.4404 12.2099C34.6118 12.1159 34.8058 12.0683 34.9894 12C35.0248 12.0425 35.0599 12.0853 35.095 12.1278C34.6592 12.887 34.2233 13.6466 33.7128 14.5365C34.6179 14.4768 35.3378 14.4297 36.0842 14.3805C36.1397 14.6068 36.1826 14.7828 36.2254 14.9582C36.6728 14.7109 37.086 14.4684 37.5128 14.2563C37.6246 14.2008 37.8329 14.182 37.8986 14.2515C37.9816 14.3389 38.033 14.5865 37.9757 14.6744C37.7461 15.0277 37.5019 15.3854 37.2023 15.6684C36.6354 16.2041 36.0268 16.6895 35.4121 17.2155C35.9244 17.5973 36.3308 17.5429 36.7172 17.1024C37.0679 16.703 37.4029 16.2881 37.7923 15.9208C37.8134 16.5535 37.6681 17.0826 37.1123 17.3715C36.707 17.5821 36.3047 17.8207 35.8757 17.9489C35.5624 18.0428 35.207 17.9774 34.8706 17.983C34.9382 17.6499 35.0057 17.3169 35.081 16.9462C34.8656 16.9462 34.5143 16.9969 34.1854 16.9261C34.0025 16.887 33.7507 16.6627 33.7269 16.4907C33.7042 16.3265 33.9094 16.0891 34.0633 15.9428C34.3591 15.6621 34.6898 15.423 35.006 15.1666C34.9828 15.1178 34.9597 15.069 34.9364 15.0202Z" fill="#058C50"/>
<path fill-rule="evenodd" clip-rule="evenodd" d="M39.1462 24.1836C39.1462 24.1836 38.8201 24.448 39.142 24.427C39.464 24.4055 41.1886 23.4185 41.3153 23.3334C41.4417 23.2486 42.4534 22.5796 42.35 22.8663C42.2463 23.1529 40.2573 25 40.2573 25C40.2573 25 43.6951 22.2717 42.9593 22.2611C42.2236 22.2507 40.1311 23.7793 40.1311 23.7793C40.1311 23.7793 43.4079 20.6477 43.7757 20.3398C44.1435 20.0319 43.9482 20 43.9482 20C43.9482 20 40.2115 22.9301 40.2115 22.9619C40.2115 22.9936 39.2111 23.3015 39.2111 23.3015L39.1766 23.5565C39.1766 23.5565 40.0275 23.068 39.7631 23.4078C39.4985 23.7474 39.1462 24.1836 39.1462 24.1836Z" fill="#058C50"/>
<path fill-rule="evenodd" clip-rule="evenodd" d="M73.263 22.8562C73.3153 22.913 73.3802 22.9619 73.4175 23.0277C73.5524 23.2644 73.6779 23.5068 73.8072 23.7473C73.51 23.8335 73.1911 24.0388 72.9198 23.9866C71.1502 23.6458 69.4847 22.9812 67.8846 22.1438C66.7049 21.5267 65.5017 20.9504 64.3598 20.2666C62.7036 19.2742 61.0935 18.1999 59.462 17.1634C59.2382 17.0213 59.0039 16.8959 58.7748 16.7628C58.7254 16.7963 58.6763 16.8296 58.6272 16.8631C58.7643 17.1841 58.9131 17.5004 59.0368 17.8266C59.627 19.3859 60.7753 20.4792 61.9471 21.5666C62.8672 22.4204 63.7386 23.3293 64.6314 24.2137C64.6094 24.2643 64.5874 24.3149 64.5654 24.3656C64.3839 24.3173 64.183 24.3052 64.0241 24.2156C62.0768 23.1197 60.0035 22.2296 58.3667 20.6206C57.6894 19.9548 57.0309 19.2676 56.3323 18.6265C56.0272 18.3463 55.6428 18.1574 55.1342 17.8212C55.2025 18.1427 55.2086 18.3028 55.269 18.4376C56.3903 20.9419 57.9105 23.1356 60.0424 24.8503C60.118 24.9109 60.203 24.9701 60.2535 25.0502C60.3893 25.2654 60.5091 25.4914 60.6354 25.7131C60.307 25.7124 59.8955 25.8414 59.6652 25.687C58.8964 25.1706 58.1306 24.617 57.4774 23.9592C56.3261 22.7999 55.2658 21.5462 54.1506 20.3483C53.9027 20.0822 53.5952 19.869 53.2937 19.6647C53.2138 19.6102 52.9821 19.6364 52.9469 19.6996C52.8827 19.816 52.8505 20.027 52.913 20.129C53.3788 20.8898 53.8141 21.6816 54.3709 22.3686C54.928 23.0565 55.6145 23.6344 56.2443 24.2608C56.2128 24.3102 56.1815 24.3596 56.1502 24.409C56.0033 24.3577 55.8284 24.3423 55.7144 24.2489C54.8944 23.5788 53.914 23.1054 53.3053 22.174C52.9955 21.7001 52.5492 21.2869 52.3632 20.771C52.1667 20.2254 52.1197 19.581 52.1808 18.9988C52.2098 18.7225 52.6162 18.4447 52.91 18.2724C52.9779 18.2325 53.3104 18.6015 53.4768 18.818C53.7826 19.2153 54.0553 19.6388 54.4194 20.0033C54.031 18.8254 53.8985 17.6427 53.911 16.4358C53.9261 15.0512 54.4703 14.6534 55.7322 15.1099C55.802 15.1353 55.8763 15.1462 56.0802 15.1961C55.9706 14.9283 55.903 14.7485 55.8244 14.5738C55.6713 14.233 55.4878 13.9047 55.3596 13.5546C54.9296 12.3774 55.3295 11.8903 56.6315 12.1203C55.2653 8.88224 54.6506 5.4854 54.0162 2.09119C54.3044 3.0557 54.5848 4.02283 54.8832 4.98402C55.1103 5.71519 55.3571 6.44018 55.6011 7.16564C55.8513 7.91059 56.1305 8.59899 57.0819 8.65245C57.3294 8.66624 57.5951 8.91907 57.797 9.12034C59.7095 11.0292 61.6044 12.9561 63.516 14.8658C64.6432 15.9919 65.7529 17.142 66.9434 18.1947C67.775 18.9304 68.7034 19.5632 69.6356 20.1658C72.053 21.7284 74.7846 22.4304 77.5426 22.9671C80.0376 23.4529 82.5635 23.7796 85.0807 24.1379C86.3586 24.3197 87.6515 24.3879 88.9291 24.5692C89.3085 24.6229 89.9704 24.8945 89.9667 25.0525C89.9535 25.5862 89.3916 25.6316 88.9931 25.6295C87.8413 25.6235 86.6772 25.6397 85.5411 25.4767C82.664 25.0637 79.7885 24.6174 76.9355 24.0609C75.6792 23.8159 74.4785 23.2708 73.25 22.8638C72.3781 22.4491 71.5045 22.0409 70.6398 21.6146C69.2646 20.9369 67.8839 20.2694 66.5291 19.5511C66.0402 19.2918 65.6194 18.8971 65.1666 18.5654C63.8872 17.6282 62.6077 16.691 61.3275 15.7546C61.0402 15.5443 60.7508 15.3363 60.4623 15.1272C60.4329 15.1674 60.4032 15.2075 60.3738 15.2475C60.4435 15.3316 60.5052 15.4247 60.5842 15.4984C61.3071 16.1718 61.9865 16.9066 62.7692 17.4973C63.8633 18.3233 64.9834 19.1431 66.1855 19.7808C67.9402 20.7121 69.7716 21.4946 71.5845 22.3075C72.1195 22.5475 72.702 22.6763 73.263 22.8562Z" fill="#F1A806"/>
<path fill-rule="evenodd" clip-rule="evenodd" d="M63.7829 13.4069C63.3343 12.8138 62.8975 12.2117 62.4338 11.6306C62.094 11.2043 61.9084 10.8018 62.1777 10.2402C62.2671 10.0543 62.119 9.70476 61.9929 9.47808C61.7674 9.07138 61.4721 8.70376 61.2141 8.3144C61.1255 8.18078 60.9959 8.02885 61.0001 7.88889C61.0089 7.59137 61.0934 7.29605 61.1465 7C61.4337 7.10845 61.8056 7.13899 61.9919 7.34026C62.5418 7.93383 62.9458 8.67494 63.541 9.20988C64.3337 9.92289 65.2528 10.4959 66.1176 11.1291C66.1553 11.0832 66.1932 11.037 66.2309 10.9908C65.9418 10.6691 65.6436 10.3545 65.3667 10.0223C65.1728 9.78977 64.9661 9.55161 64.8469 9.27998C64.7801 9.12829 64.8234 8.86278 64.9235 8.7255C64.995 8.62755 65.2714 8.58773 65.4071 8.64294C65.8348 8.81661 66.2417 9.04207 66.6518 9.25727C67.012 9.44633 67.3657 9.64809 67.841 9.9097C67.7807 9.34129 67.7406 8.95975 67.6882 8.46438C68.1627 9.09752 68.5635 9.56333 68.8759 10.0822C69.0113 10.3074 68.964 10.6418 69 10.9266C68.7204 10.9378 68.4222 11.0157 68.1661 10.9442C67.7864 10.8379 67.4365 10.6256 67.0737 10.4583C67.0377 10.4959 67.0017 10.5333 66.9657 10.5709C67.0577 10.6997 67.1354 10.8426 67.2446 10.9554C67.7073 11.4339 68.2151 11.8751 68.632 12.39C68.8152 12.6159 68.8203 12.9853 68.9065 13.2899C68.609 13.3013 68.3098 13.3373 68.015 13.316C67.8302 13.3028 67.652 13.2031 67.3983 13.2547C67.6647 13.5446 67.9316 13.8346 68.3367 14.2755C67.8637 14.3954 67.5207 14.5205 67.1674 14.5622C66.7936 14.6067 66.4099 14.5723 65.9665 14.5723C66.3663 15.0544 66.7125 15.4721 67.1503 16C65.8047 15.7347 62.341 13.1946 62.1126 12.3656C62.6495 12.7637 63.1566 13.1396 63.6639 13.5153C63.7035 13.4792 63.7432 13.443 63.7829 13.4069Z" fill="#F1A806"/>
</svg>
