<svg width="24" height="24" viewBox="0 0 24 24" fill="none" xmlns="http://www.w3.org/2000/svg">
<path d="M21.15 6.45C20.6075 5.485 20.0188 5.3075 18.82 5.24C17.6225 5.15875 14.6112 5.125 12.0025 5.125C9.38875 5.125 6.37625 5.15875 5.18 5.23875C3.98375 5.3075 3.39375 5.48375 2.84625 6.45C2.2875 7.41375 2 9.07375 2 11.9963C2 11.9988 2 12 2 12C2 12.0025 2 12.0038 2 12.0038V12.0063C2 14.9163 2.2875 16.5887 2.84625 17.5425C3.39375 18.5075 3.9825 18.6825 5.17875 18.7638C6.37625 18.8338 9.38875 18.875 12.0025 18.875C14.6112 18.875 17.6225 18.8337 18.8212 18.765C20.02 18.6837 20.6087 18.5088 21.1513 17.5438C21.715 16.59 22 14.9175 22 12.0075C22 12.0075 22 12.0038 22 12.0013C22 12.0013 22 11.9988 22 11.9975C22 9.07375 21.715 7.41375 21.15 6.45ZM9.5 15.75V8.25L15.75 12L9.5 15.75Z" fill="white"/>
</svg>
