<svg width="40" height="38" viewBox="0 0 40 38" fill="none" xmlns="http://www.w3.org/2000/svg">
<path d="M40 8.42087C39.932 7.04699 39.3556 5.74746 38.3829 4.77479C37.4103 3.80212 36.1107 3.22576 34.7368 3.15771C32.3158 3.15771 29.7095 5.36824 29.4884 8.97561L19.0453 17.8946H0V18.9472C0 25.0693 4.49368 30.344 9.01263 33.0051L7.36842 35.4735V37.8946H30.5263V35.4735L28.8821 33.0082C33.4011 30.344 37.8947 25.0693 37.8947 18.9472V17.8946H30.6168L34.1863 13.6682C37.7895 13.4461 40 10.8419 40 8.42087ZM26.8979 31.684L25.8316 32.2177L28.2105 35.7893H9.68421L12.0611 32.223L10.9968 31.684C7.62842 29.9998 2.72 25.5861 2.15474 19.9998H35.7337C35.1747 25.5914 30.2632 30.0072 26.8979 31.684ZM33.1958 11.5788L27.8621 17.8946H22.2832L31.5789 9.95877V9.4735C31.5789 6.87245 33.2179 5.26298 34.7368 5.26298C35.5505 5.33412 36.313 5.68968 36.8905 6.26719C37.468 6.84471 37.8236 7.60725 37.8947 8.42087C37.8947 9.93982 36.2853 11.5788 33.6842 11.5788H33.1958Z" fill="#1E6BD0"/>
<path d="M10.526 16.8421V14.7368C6.69337 14.7368 4.43758 6.42105 4.226 2.52632L4.63758 2.11474C9.646 2.32526 14.4386 6.12105 15.3102 9.40316C15.5065 10.0247 15.5201 10.6894 15.3496 11.3185C15.179 11.9475 14.8314 12.5143 14.3481 12.9516C13.7355 10.3053 12.2639 7.88316 9.05232 5.4779L7.78916 7.16211C11.8207 10.1821 12.6313 13.1053 12.6313 16.8421H14.7365C14.7365 16.3284 14.7218 15.8263 14.6892 15.3316C15.7898 14.7034 16.6489 13.7255 17.1301 12.5532C17.6113 11.3808 17.6869 10.0813 17.345 8.86105C16.0913 4.14105 9.95442 0 4.21021 0H3.77442L2.09863 1.67579L2.10495 2.12105C2.15232 5.36842 4.286 16.8421 10.526 16.8421Z" fill="#1E6BD0"/>
</svg>
