<svg width="90" height="66" viewBox="0 0 90 66" fill="none" xmlns="http://www.w3.org/2000/svg">
<path fill-rule="evenodd" clip-rule="evenodd" d="M43.8148 30.183C43.9847 30.2868 44.1549 30.3907 44.3254 30.4945C44.4498 30.5818 44.5711 30.6489 44.6523 30.4567C44.6626 30.3825 44.6771 30.2761 44.6138 30.2507C43.8275 29.9379 43.963 29.0917 43.3195 28.6923C43.0575 28.5297 42.9773 28.2625 43.12 28.0152C43.2693 27.7573 43.5246 27.6232 43.91 27.6798C44.4917 27.7654 44.1583 27.4905 44.0879 27.3249C44.0344 27.1096 43.866 26.9524 43.7023 26.7928C43.6125 26.6472 43.3461 26.4989 43.6019 26.3372C43.851 26.1796 43.9674 26.4316 44.1161 26.5378C44.4055 26.7449 44.5677 27.0468 44.9014 27.2331C45.1161 27.3531 45.3157 27.3857 45.5553 27.3944C45.9409 27.4083 46.0638 27.2704 45.9681 26.9669C45.9463 26.8977 45.9644 26.986 45.9546 26.9144C45.9124 26.5966 45.6137 26.1835 46.1662 26.0302C46.6556 25.8945 47.0143 26.2449 47.35 26.5C47.5321 26.6381 47.6353 26.8397 47.7085 27.0386C48.2861 26.8664 48.6857 26.533 49.1446 26.2779C49.4436 26.1121 49.7648 26.0422 50.0064 26.2883C50.2562 26.5425 50.219 26.8043 49.8489 27.0171C49.6096 27.1547 49.5452 27.4536 49.2369 27.5494C49.1603 27.9395 49.3685 27.8715 49.6396 27.7306C50.2583 27.4091 50.8711 27.0835 51.4106 26.6665C51.5968 26.5226 51.8175 26.3878 52.0518 26.3146C52.47 26.1841 52.8477 26.2262 52.8715 26.6964C52.8862 26.9871 52.976 27.0559 53.2848 26.8992C53.5008 26.7896 53.7473 26.7555 53.9208 26.9522C54.0807 27.1336 54.0082 27.3314 53.8794 27.5094C53.6128 27.8778 53.337 28.2419 53.0737 28.6118C53.0228 28.6836 52.9571 28.798 52.991 28.8523C53.0657 28.9725 53.2131 28.9115 53.3306 28.8742C53.6513 28.7724 53.9663 28.6563 54.2912 28.5649C54.5325 28.4969 54.7671 28.5301 54.9215 28.7194C55.093 28.9293 54.9557 29.0945 54.779 29.2422C54.3838 29.5719 54.002 29.9145 53.5199 30.1606C53.4322 30.2067 53.2843 30.2594 53.3158 30.3391C53.5551 30.9408 53.0414 30.9981 52.5686 31.0919C52.3573 31.1809 52.1496 31.2701 52.1966 31.5174C52.3042 32.094 52.7833 32.5381 52.984 33.0808C53.0298 33.1166 53.0758 33.1525 53.1213 33.1885C53.2307 33.3285 53.344 33.4993 53.1322 33.6085C52.9284 33.7136 52.8544 33.5245 52.7677 33.406C52.537 33.0906 51.9923 33.0478 51.8868 32.6877C52.2085 33.1726 52.5502 33.6999 52.7602 34.2693C52.9713 34.842 52.715 35.051 51.9892 34.9668C51.6292 34.5811 50.9383 34.4708 50.7973 33.9741C50.966 34.204 51.1108 34.4968 51.1866 34.8129L51.1869 34.8131C51.3415 35.0495 51.542 35.2627 51.6894 35.503C51.7722 35.6372 51.8275 35.7837 51.6972 35.907C51.5358 36.059 51.3291 35.9995 51.1685 35.9072C50.585 35.5716 50.0077 35.226 49.5338 34.7793C49.3013 34.5602 49.0695 34.4028 48.71 34.5947C48.6402 34.6319 48.5478 34.6573 48.4627 34.6464C47.9123 34.5767 47.4181 34.4387 47.4907 35.2375C47.5197 35.5558 46.9618 35.4101 46.6695 35.2382C46.1297 34.8357 45.6057 34.4165 44.8315 34.3475C44.508 34.3184 44.3404 34.1287 44.3486 33.866C44.3626 33.4236 44.121 33.2497 43.6073 33.2929C43.3834 33.3118 43.1932 33.2304 43.0528 33.0776C42.8565 32.6054 43.2458 32.3471 43.613 32.1369C44.0171 31.9058 44.054 31.7173 43.6821 31.4636C43.6415 31.4243 43.6006 31.385 43.5598 31.3455C43.4121 31.1681 43.2486 30.9936 43.1552 30.7939C42.9571 30.369 43.2608 30.0966 43.8148 30.183Z" fill="white"/>
<path fill-rule="evenodd" clip-rule="evenodd" d="M34.5246 44.005C35.2587 45.1072 35.9299 46.115 36.6009 47.1229C36.2276 45.8958 35.763 44.7348 34.5246 44.005ZM15.199 35.4724C16.2035 35.4724 17.2259 35.3508 18.2081 35.503C19.4515 35.696 20.6883 36.0329 21.8808 36.4499C23.5512 37.034 25.1848 37.7323 26.82 38.4176C27.3316 38.6318 27.7973 38.9615 28.2841 39.2383C28.316 39.1899 28.3479 39.1417 28.3795 39.093C27.6584 38.5169 26.9313 37.9481 26.2179 37.3621C25.463 36.7421 24.7301 36.0934 23.9702 35.4799C23.4527 35.062 22.8804 34.7122 22.3837 34.2714C22.1866 34.0965 21.9698 33.6969 22.0392 33.5059C22.1871 33.0979 22.6202 33.0502 22.9915 33.2149C23.88 33.6092 24.7638 34.018 25.6301 34.4615C27.0225 35.1747 28.4048 35.9099 29.7799 36.6578C30.3778 36.983 30.956 37.3486 31.527 37.722C32.3278 38.2459 33.1083 38.8021 33.9066 39.3303C35.7061 40.5209 37.1201 42.0662 38.1476 44.0052C38.6763 45.0027 39.3084 45.9419 39.8965 46.9056C39.942 46.9805 40.0085 47.0417 40.1815 47.0511C40.0521 46.7064 39.9567 46.3429 39.7875 46.0204C39.1439 44.7926 38.3923 43.6162 37.8405 42.3473C37.2441 40.975 36.3729 39.8554 35.3105 38.876C34.444 38.0777 33.5072 37.3602 32.6295 36.5739C32.2085 36.1967 31.8288 35.7622 31.4803 35.3132C31.3741 35.1769 31.4337 34.9044 31.4173 34.6944C31.647 34.6821 31.939 34.5703 32.0953 34.6742C32.877 35.193 33.6298 35.7593 34.38 36.3261C35.2209 36.9618 36.0504 37.6133 36.8808 38.2635C37.2534 38.5554 37.616 38.8608 38.0843 39.0783C37.6411 38.3148 37.1967 37.5519 36.7561 36.7869C36.6178 36.5472 36.4434 36.315 36.3708 36.0544C36.3094 35.8349 36.2827 35.4768 36.4029 35.3662C36.5461 35.2344 36.8784 35.239 37.0992 35.2997C37.308 35.357 37.4831 35.5567 37.6641 35.7054C37.8579 35.8648 38.0409 36.038 38.2687 36.2408C38.4987 35.7877 38.7138 35.7439 39.1608 35.9609C41.1996 36.9504 42.6056 38.5872 43.7913 40.4822C44.0749 40.9352 44.4166 41.3493 44.7054 41.799C44.8498 42.0238 44.9351 42.2885 44.9353 42.6185C43.1435 40.6751 41.3522 38.7312 39.5604 36.7878C39.5191 36.8228 39.4777 36.8575 39.4362 36.8921C39.8735 37.4493 40.3141 38.0035 40.7473 38.5643C41.3716 39.3727 42.1383 40.0763 42.5018 41.0776C42.522 41.133 42.5667 41.1785 42.5892 41.2335C42.727 41.5731 43.0134 41.9662 42.6202 42.2545C42.21 42.5554 41.9712 42.0912 41.7811 41.8407C41.3182 41.2303 40.9615 40.5332 40.4824 39.9385C39.622 38.8707 38.7035 37.8525 37.8094 36.8136C37.7562 36.8526 37.7032 36.8919 37.6498 36.9309C37.9102 37.3575 38.1555 37.7949 38.4338 38.209C39.3251 39.5374 40.2792 40.8252 41.1122 42.1907C41.8092 43.3329 42.371 44.5621 42.9921 45.7532C43.0289 45.8241 43.0781 45.8922 43.0957 45.9679C43.1834 46.3422 43.4428 46.7664 42.9724 47.0424C42.495 47.323 42.221 46.975 41.9735 46.6103C41.7893 46.3391 41.5915 46.0775 41.3998 45.8118C41.3538 45.8342 41.3074 45.8566 41.2612 45.8785C41.373 46.2608 41.5181 46.6365 41.5901 47.0265C41.7884 48.1042 41.9684 49.186 42.1305 50.2702C42.203 50.7517 41.883 50.9791 41.4942 50.8808C41.1659 50.7977 40.797 50.5804 40.6003 50.3058C39.982 49.4418 39.4364 48.5226 38.7792 47.4941C38.9815 48.367 39.1727 49.1017 39.3173 49.8457C39.4463 50.5093 39.795 51.1915 39.2231 51.8411C39.1631 51.9091 39.2817 52.1772 39.357 52.3318C40.4323 54.5428 41.2648 56.8605 41.8195 59.2498C42.2276 61.0077 42.3066 62.8468 42.5189 64.6514C42.5442 64.8651 42.5062 65.0929 42.4641 65.3073C42.3347 65.9666 42.0877 66.12 41.4705 65.9158C40.5056 65.5968 39.7474 64.9877 39.0002 64.2785C37.8539 63.191 37.0837 61.8505 36.3741 60.4876C35.5976 58.9973 35.0222 57.3967 34.358 55.8445C34.0448 55.1132 33.7195 54.3872 33.4163 53.6516C32.7886 52.128 32.1867 50.5932 31.5434 49.0769C31.2724 48.4381 30.9295 47.831 30.6073 47.2161C30.1659 46.3742 29.7548 45.5119 29.2566 44.7064C28.3666 43.2674 27.3558 41.9318 26.2003 40.6867C24.6368 39.0017 22.7646 37.8246 20.7377 36.9211C19.647 36.4345 18.4141 36.2755 17.2366 36.0074C16.5605 35.8532 15.8674 35.7769 15.1816 35.6654C15.1873 35.6011 15.1934 35.5367 15.199 35.4724Z" fill="white"/>
<path fill-rule="evenodd" clip-rule="evenodd" d="M22.3776 47.1646C22.6642 47.5416 22.9383 47.9265 23.2404 48.2935C23.8226 49.0012 24.6115 49.5955 24.8118 50.509C24.8462 50.6647 24.7887 50.836 24.7735 51C24.5778 50.9555 24.312 50.9673 24.1989 50.8571C23.7491 50.419 23.3299 49.9533 22.9322 49.4768C22.6045 49.0849 22.2379 48.7611 21.5838 48.5262C21.807 49.0569 21.9754 49.4577 22.1804 49.9453C21.3569 49.7789 20.6835 49.6427 20.0102 49.5065L20.0001 49.3946H21.4169C21.175 48.2599 21.175 48.2599 21.9405 48.0547C21.5496 47.6062 21.1597 47.2006 20.8291 46.7606C20.6769 46.5578 20.641 46.2873 20.5523 46.0479C20.8335 45.9768 21.1125 45.8575 21.3965 45.8488C21.6642 45.8408 21.9365 45.9492 22.3019 46.0262C21.9184 45.5881 21.5813 45.2452 21.3013 44.8691C21.1103 44.6121 20.8352 44.3289 21.1644 43.9908C21.4864 43.6605 21.8621 43.7678 22.2333 43.8917C22.7208 44.0543 23.2031 44.228 23.7665 44.299C23.1711 43.7188 22.5629 43.148 21.9894 42.5513C21.8567 42.4134 21.8429 42.1861 21.7745 42C21.9941 42.0182 22.2569 41.9735 22.4267 42.0642C23.8698 42.8339 25.3 43.6232 26.7259 44.4174C27.44 44.8154 28.1839 45.7024 28.4236 46.4752C27.6979 45.5276 26.76 44.8058 25.6464 44.2714C25.6066 44.3061 25.5668 44.3408 25.5267 44.3757C26.3308 45.3025 27.1389 46.2266 27.9371 47.1573C28.2441 47.5151 28.5573 47.8732 28.8152 48.2584C29.0328 48.5837 29.1274 48.9921 28.7051 49.2281C28.2822 49.4643 27.9808 49.2059 27.6839 48.8967C27.3203 48.5182 26.8593 48.2122 26.4407 47.8747C26.3972 47.9018 26.3532 47.9289 26.3092 47.9563C26.3824 48.0801 26.4699 48.199 26.5262 48.3284C26.7291 48.7956 26.9783 49.2563 27.0899 49.7408C27.1347 49.9355 26.9196 50.2381 26.7217 50.3873C26.6351 50.4526 26.2293 50.3097 26.0815 50.1689C25.5473 49.659 25.1011 49.0743 24.5456 48.585C23.9157 48.03 23.2038 47.5474 22.5275 47.0334C22.4776 47.0772 22.4277 47.121 22.3776 47.1646Z" fill="white"/>
<path fill-rule="evenodd" clip-rule="evenodd" d="M0 34.7197C0.676049 34.5806 1.34395 34.4106 2.02938 34.3076C5.5084 33.7852 8.8842 34.2137 12.2365 34.9429C14.2247 35.3756 16.2385 35.7414 18.241 36.1367C18.7654 36.24 19.2909 36.3407 19.816 36.4425C19.8212 36.4926 19.8267 36.543 19.8321 36.5931C18.963 36.7281 18.0956 36.9677 17.2244 36.9767C15.2802 36.9966 13.3198 36.9956 11.3928 36.8269C9.34198 36.6472 7.31383 36.2927 5.29111 35.9612C3.65111 35.6923 2.03284 35.3464 0.406914 35.0287C0.266914 35.0016 0.140988 34.932 0.00864198 34.8819C0.00567901 34.8279 0.00296296 34.7737 0 34.7197Z" fill="white"/>
<path fill-rule="evenodd" clip-rule="evenodd" d="M51.0001 55.9424C51.5805 51.2777 52.6897 46.8418 56.0119 43.3654C55.9705 43.3152 55.9294 43.265 55.888 43.215C55.6111 43.4209 55.301 43.5913 55.0625 43.8392C54.14 44.7987 53.2404 45.7829 52.3316 46.7575C52.2372 46.8589 52.1542 46.9997 52.0384 47.0459C51.8441 47.1236 51.6282 47.1402 51.4213 47.1825C51.3984 46.9529 51.2824 46.6694 51.3687 46.5036C51.7583 45.7547 52.1394 44.982 52.6492 44.3271C53.2348 43.5748 53.9545 42.9392 54.6117 42.2481C54.7863 42.0643 54.9451 41.8634 55.1112 41.6702C55.0749 41.6274 55.0389 41.5841 55.0027 41.541C54.4255 42.0423 53.8451 42.5391 53.2729 43.0463C52.8115 43.4548 52.3681 43.8862 51.8986 44.2833C51.7809 44.3828 51.5929 44.3892 51.4374 44.4385C51.415 44.2499 51.3179 44.0253 51.382 43.8793C51.8499 42.8112 52.08 41.5952 53.0362 40.8198C53.1366 40.7387 53.199 40.6056 53.2792 40.4962C53.2507 40.4396 53.2219 40.3824 53.1934 40.3255C52.986 40.4386 52.7722 40.5408 52.5727 40.6677C52.3597 40.803 52.1602 40.9611 51.9549 41.1096C51.9126 41.0737 51.8705 41.0378 51.8279 41.0019C52.0524 40.6286 52.2769 40.2552 52.5954 39.725C52.6153 40.018 52.6221 40.115 52.6375 40.3438C53.4188 39.7978 54.1325 39.2795 54.8668 38.7968C55.1203 38.6302 55.4205 38.4754 55.7089 38.4543C56.0451 38.4296 56.1761 38.6946 55.9226 38.9751C55.7269 39.1916 55.4673 39.3586 55.2115 39.4969C53.7787 40.2721 52.7159 41.4161 52.0616 42.975C52.0269 43.0582 52.0412 43.1643 52.1427 43.3583C52.5524 42.983 52.9635 42.6096 53.3711 42.2318C53.6601 41.9636 53.9433 41.6882 54.2305 41.4178C54.5476 41.1199 54.8324 40.7632 55.1911 40.5398C56.0734 39.9895 56.9695 39.4536 57.9005 39.0053C58.5113 38.7111 58.8955 38.9576 59.2774 39.5882C59.37 39.7411 59.6137 39.9037 59.7671 39.8839C60.5561 39.7814 61.3591 39.6949 62.1165 39.4581C62.7783 39.2515 63.3615 38.7629 64.0231 38.5558C66.0405 37.9236 67.9772 36.9112 70.1592 37.0062C70.3147 37.0129 70.4876 36.9827 70.6204 37.0453C70.7736 37.1173 70.9852 37.263 70.999 37.3964C71.0144 37.5478 70.8704 37.8207 70.7408 37.8657C70.3966 37.9865 70.0152 37.9815 69.6632 38.0822C68.2054 38.4989 66.7271 38.8576 65.3062 39.3871C63.869 39.9227 62.4294 40.5192 61.1044 41.3038C59.9177 42.0064 58.8719 42.9832 57.7908 43.8756C57.3208 44.2636 56.8526 44.6908 56.4981 45.1913C55.4587 46.6582 54.3465 48.094 53.5102 49.6875C52.7294 51.1755 52.2606 52.8475 51.665 54.443C51.4739 54.9549 51.3168 55.4807 51.1439 56C51.096 55.9807 51.0481 55.9617 51.0001 55.9424Z" fill="white"/>
<path fill-rule="evenodd" clip-rule="evenodd" d="M59.5141 45.2655C59.2797 45.9968 58.5229 46.4426 58.6003 47.3451C59.5812 46.5556 60.5478 45.7779 61.5143 45C61.5317 45.0732 61.5493 45.1459 61.5667 45.2186C61.8439 45.1996 62.1218 45.1596 62.3986 45.1688C62.5998 45.1754 62.7996 45.2478 63.0001 45.291C62.9381 45.5651 62.9523 45.9565 62.7982 46.0887C62.472 46.3686 62.1809 46.5653 62.3196 47.1297C62.3512 47.2579 62.1401 47.4744 62.0275 47.6382C61.7828 47.9948 61.4987 48.3224 61.2934 48.7063C61.2032 48.8754 61.2657 49.153 61.2588 49.381C61.423 49.3207 61.5866 49.2588 61.7512 49.2012C61.8171 49.1782 61.8853 49.1653 61.9524 49.1477C61.9797 49.2135 62.0064 49.2794 62.0332 49.3449C61.802 49.4405 61.5729 49.5993 61.3387 49.6101C61.165 49.618 60.9846 49.434 60.6566 49.252C60.5513 49.4218 60.337 49.6754 60.2196 49.9783C60.0193 50.496 59.8948 51.052 59.7064 51.5765C59.6466 51.7424 59.485 51.8602 59.3701 52C59.2923 51.7991 59.1332 51.5865 59.1531 51.3988C59.2007 50.9471 59.3378 50.5087 59.4269 50.0618C59.463 49.8798 59.4679 49.6902 59.3642 49.4276C59.2392 49.5896 59.0698 49.7294 58.9986 49.9183C58.8331 50.3575 58.7324 50.8289 58.5689 51.2695C58.5078 51.4349 58.3458 51.5507 58.2297 51.6895C58.1489 51.507 57.9726 51.2984 58.0038 51.1468C58.167 50.3562 58.1544 49.592 58.1281 48.7743C58.0962 47.7715 58.2933 46.6588 58.8908 45.7758C59.0483 45.5435 59.209 45.3142 59.3681 45.0832C59.4168 45.1438 59.4653 45.2046 59.5141 45.2655Z" fill="white"/>
<path fill-rule="evenodd" clip-rule="evenodd" d="M38.6791 20.1737C39.5862 20.2635 41.6203 18.0654 41.4022 17.3027C40.4965 18.2574 39.6173 19.1846 38.6791 20.1737ZM36.2682 21.2929C32.56 24.9871 28.1288 26.4897 23.0001 25.8612C25.1093 25.2831 27.226 24.7137 29.3354 24.1181C29.9686 23.9391 30.5989 23.7262 31.2002 23.4598C32.6026 22.8381 33.9946 22.1914 35.376 21.5237C37.659 20.4202 39.2899 18.5444 40.7977 16.6013C41.8546 15.2387 42.695 13.6947 43.533 12.1761C43.9024 11.5072 44.0148 10.6971 44.263 9.95739C44.939 7.94354 45.6256 5.93355 46.3065 3.92139C46.6984 2.76273 47.0749 1.59849 47.4888 0.44782C47.5533 0.268111 47.7808 0.147739 47.933 0C47.9532 0.198116 48.0336 0.412702 47.9845 0.591442C47.6614 1.77433 47.2955 2.94534 46.9724 4.12823C46.6604 5.27018 46.4044 6.42787 46.0847 7.56741C45.7489 8.76458 45.3644 9.94795 45.0103 11.1398C44.9814 11.2374 45.0214 11.3553 45.0266 11.4312H45.7559C45.7157 11.6901 45.7371 11.9807 45.6249 12.2028C44.9862 13.4654 44.3446 14.7282 43.6426 15.9554C43.338 16.4882 42.8777 16.9295 42.5072 17.4265C42.4037 17.5655 42.3673 17.7551 42.3002 17.9215C42.3524 17.9537 42.4049 17.9862 42.4569 18.0184C42.9264 17.6706 43.3956 17.3228 43.865 16.975C43.9079 17.014 43.9505 17.0528 43.9936 17.0915C42.5915 19.1233 40.9286 20.9531 39.4078 22.9115C41.5825 21.2977 43.3431 19.2146 45.499 17.5652C45.4525 18.2681 45.213 18.8884 44.7286 19.3669C43.7521 20.3323 42.7448 21.2658 41.7438 22.2057C41.3418 22.5833 40.6958 22.8761 40.5646 23.3264C40.3744 23.9798 39.9435 24.0687 39.4256 24.2041C39.6919 23.8984 39.9582 23.5925 40.2247 23.2869C40.1753 23.2275 40.1262 23.1684 40.0771 23.1096C38.8818 23.9401 37.6862 24.7706 36.3869 25.6735C36.3496 24.9648 36.7858 24.7098 37.0791 24.4063C37.7691 23.6918 38.5171 23.0348 39.2111 22.3244C40.1009 21.4135 40.9614 20.4733 41.8319 19.543C41.8668 19.5055 41.8738 19.4411 41.9436 19.2599C41.5847 19.4125 41.2857 19.4779 41.0615 19.645C39.5275 20.7874 38.0014 21.94 36.49 23.112C35.6132 23.7921 34.779 24.5281 33.9029 25.2094C33.6405 25.4134 33.3116 25.5495 32.9929 25.6524C32.8616 25.6948 32.6763 25.5674 32.5155 25.5173C32.5788 25.3814 32.6062 25.1973 32.7117 25.1184C33.1688 24.7752 33.659 24.4763 34.1184 24.135C34.6629 23.7306 35.2525 23.3576 35.7005 22.8596C36.0325 22.4908 36.1695 21.9446 36.3934 21.4774C36.3518 21.4159 36.3099 21.3544 36.2682 21.2929Z" fill="white"/>
<path fill-rule="evenodd" clip-rule="evenodd" d="M34.9365 15.0202C34.6289 15.0202 34.3202 15.0028 34.014 15.0243C33.5786 15.0552 33.38 14.8488 33.5289 14.4174C33.7259 13.847 33.9879 13.3017 34.2098 12.775C33.8258 12.7499 33.4129 12.7231 33.0001 12.6962C33.0071 12.5818 33.0146 12.4673 33.0217 12.3528C33.0971 12.7904 33.3097 12.9015 33.6633 12.6955C33.9269 12.5419 34.174 12.356 34.4406 12.2099C34.6119 12.1159 34.8059 12.0683 34.9895 12C35.0249 12.0425 35.06 12.0853 35.0952 12.1278C34.6593 12.887 34.2234 13.6466 33.713 14.5365C34.618 14.4768 35.3379 14.4297 36.0843 14.3805C36.1398 14.6068 36.1827 14.7828 36.2255 14.9582C36.6729 14.7109 37.0861 14.4684 37.5129 14.2563C37.6247 14.2008 37.833 14.182 37.8987 14.2515C37.9817 14.3389 38.0331 14.5865 37.9758 14.6744C37.7462 15.0277 37.5021 15.3854 37.2024 15.6684C36.6355 16.2041 36.027 16.6895 35.4123 17.2155C35.9245 17.5973 36.3309 17.5429 36.7174 17.1024C37.068 16.703 37.403 16.2881 37.7924 15.9208C37.8135 16.5535 37.6682 17.0826 37.1124 17.3715C36.7072 17.5821 36.3048 17.8207 35.8758 17.9489C35.5625 18.0428 35.2071 17.9774 34.8708 17.983C34.9383 17.6499 35.0058 17.3169 35.0811 16.9462C34.8658 16.9462 34.5144 16.9969 34.1856 16.9261C34.0026 16.887 33.7508 16.6627 33.727 16.4907C33.7044 16.3265 33.9095 16.0891 34.0634 15.9428C34.3592 15.6621 34.6899 15.423 35.0061 15.1666C34.983 15.1178 34.9598 15.069 34.9365 15.0202Z" fill="white"/>
<path fill-rule="evenodd" clip-rule="evenodd" d="M39.1463 24.1836C39.1463 24.1836 38.8202 24.448 39.1421 24.427C39.4641 24.4055 41.1887 23.4185 41.3154 23.3334C41.4418 23.2486 42.4535 22.5796 42.3501 22.8663C42.2465 23.1529 40.2574 25 40.2574 25C40.2574 25 43.6952 22.2717 42.9595 22.2611C42.2237 22.2507 40.1313 23.7793 40.1313 23.7793C40.1313 23.7793 43.4081 20.6477 43.7758 20.3398C44.1436 20.0319 43.9483 20 43.9483 20C43.9483 20 40.2116 22.9301 40.2116 22.9619C40.2116 22.9936 39.2112 23.3015 39.2112 23.3015L39.1767 23.5565C39.1767 23.5565 40.0276 23.068 39.7632 23.4078C39.4986 23.7474 39.1463 24.1836 39.1463 24.1836Z" fill="white"/>
<path fill-rule="evenodd" clip-rule="evenodd" d="M73.2631 22.8562C73.3154 22.913 73.3803 22.9619 73.4176 23.0277C73.5525 23.2644 73.6781 23.5068 73.8074 23.7473C73.5101 23.8335 73.1912 24.0388 72.9199 23.9866C71.1504 23.6458 69.4849 22.9812 67.8847 22.1438C66.7051 21.5267 65.5018 20.9504 64.36 20.2666C62.7037 19.2742 61.0936 18.1999 59.4621 17.1634C59.2383 17.0213 59.004 16.8959 58.7749 16.7628C58.7255 16.7963 58.6764 16.8296 58.6273 16.8631C58.7645 17.1841 58.9132 17.5004 59.0369 17.8266C59.6271 19.3859 60.7754 20.4792 61.9472 21.5666C62.8673 22.4204 63.7387 23.3293 64.6315 24.2137C64.6095 24.2643 64.5875 24.3149 64.5655 24.3656C64.3841 24.3173 64.1832 24.3052 64.0242 24.2156C62.0769 23.1197 60.0036 22.2296 58.3668 20.6206C57.6896 19.9548 57.0311 19.2676 56.3325 18.6265C56.0273 18.3463 55.6429 18.1574 55.1343 17.8212C55.2027 18.1427 55.2087 18.3028 55.2692 18.4376C56.3904 20.9419 57.9106 23.1356 60.0426 24.8503C60.1181 24.9109 60.2031 24.9701 60.2536 25.0502C60.3894 25.2654 60.5092 25.4914 60.6355 25.7131C60.3072 25.7124 59.8957 25.8414 59.6653 25.687C58.8965 25.1706 58.1307 24.617 57.4776 23.9592C56.3262 22.7999 55.2659 21.5462 54.1507 20.3483C53.9028 20.0822 53.5953 19.869 53.2938 19.6647C53.2139 19.6102 52.9822 19.6364 52.947 19.6996C52.8828 19.816 52.8506 20.027 52.9132 20.129C53.3789 20.8898 53.8143 21.6816 54.3711 22.3686C54.9281 23.0565 55.6146 23.6344 56.2444 24.2608C56.2129 24.3102 56.1816 24.3596 56.1503 24.409C56.0034 24.3577 55.8285 24.3423 55.7145 24.2489C54.8945 23.5788 53.9141 23.1054 53.3054 22.174C52.9956 21.7001 52.5494 21.2869 52.3633 20.771C52.1668 20.2254 52.1198 19.581 52.181 18.9988C52.2099 18.7225 52.6163 18.4447 52.9101 18.2724C52.978 18.2325 53.3105 18.6015 53.4769 18.818C53.7827 19.2153 54.0555 19.6388 54.4195 20.0033C54.0311 18.8254 53.8986 17.6427 53.9111 16.4358C53.9262 15.0512 54.4705 14.6534 55.7323 15.1099C55.8021 15.1353 55.8765 15.1462 56.0804 15.1961C55.9708 14.9283 55.9031 14.7485 55.8246 14.5738C55.6714 14.233 55.4879 13.9047 55.3597 13.5546C54.9297 12.3774 55.3296 11.8903 56.6316 12.1203C55.2654 8.88224 54.6507 5.4854 54.0163 2.09119C54.3046 3.0557 54.5849 4.02283 54.8834 4.98402C55.1104 5.71519 55.3572 6.44018 55.6012 7.16564C55.8514 7.91059 56.1306 8.59899 57.082 8.65245C57.3295 8.66624 57.5953 8.91907 57.7971 9.12034C59.7096 11.0292 61.6045 12.9561 63.5161 14.8658C64.6433 15.9919 65.753 17.142 66.9435 18.1947C67.7751 18.9304 68.7035 19.5632 69.6357 20.1658C72.0531 21.7284 74.7847 22.4304 77.5427 22.9671C80.0377 23.4529 82.5636 23.7796 85.0808 24.1379C86.3587 24.3197 87.6516 24.3879 88.9293 24.5692C89.3086 24.6229 89.9706 24.8945 89.9669 25.0525C89.9537 25.5862 89.3918 25.6316 88.9932 25.6295C87.8414 25.6235 86.6773 25.6397 85.5412 25.4767C82.6641 25.0637 79.7887 24.6174 76.9356 24.0609C75.6793 23.8159 74.4786 23.2708 73.2501 22.8638C72.3782 22.4491 71.5047 22.0409 70.6399 21.6146C69.2647 20.9369 67.884 20.2694 66.5292 19.5511C66.0403 19.2918 65.6195 18.8971 65.1668 18.5654C63.8873 17.6282 62.6078 16.691 61.3276 15.7546C61.0403 15.5443 60.7509 15.3363 60.4624 15.1272C60.433 15.1674 60.4033 15.2075 60.3739 15.2475C60.4436 15.3316 60.5053 15.4247 60.5843 15.4984C61.3072 16.1718 61.9866 16.9066 62.7693 17.4973C63.8634 18.3233 64.9835 19.1431 66.1856 19.7808C67.9403 20.7121 69.7717 21.4946 71.5846 22.3075C72.1196 22.5475 72.7021 22.6763 73.2631 22.8562Z" fill="white"/>
<path fill-rule="evenodd" clip-rule="evenodd" d="M63.783 13.4069C63.3345 12.8138 62.8977 12.2117 62.434 11.6306C62.0941 11.2043 61.9085 10.8018 62.1779 10.2402C62.2672 10.0543 62.1191 9.70476 61.993 9.47808C61.7675 9.07138 61.4723 8.70376 61.2142 8.3144C61.1256 8.18078 60.9961 8.02885 61.0002 7.88889C61.009 7.59137 61.0935 7.29605 61.1466 7C61.4338 7.10845 61.8057 7.13899 61.992 7.34026C62.5419 7.93383 62.9459 8.67494 63.5411 9.20988C64.3339 9.92289 65.253 10.4959 66.1177 11.1291C66.1554 11.0832 66.1934 11.037 66.2311 10.9908C65.9419 10.6691 65.6437 10.3545 65.3668 10.0223C65.1729 9.78977 64.9663 9.55161 64.847 9.27998C64.7802 9.12829 64.8235 8.86278 64.9237 8.7255C64.9952 8.62755 65.2716 8.58773 65.4072 8.64294C65.8349 8.81661 66.2418 9.04207 66.6519 9.25727C67.0121 9.44633 67.3659 9.64809 67.8411 9.9097C67.7809 9.34129 67.7407 8.95975 67.6883 8.46438C68.1628 9.09752 68.5636 9.56333 68.876 10.0822C69.0114 10.3074 68.9641 10.6418 69.0001 10.9266C68.7205 10.9378 68.4223 11.0157 68.1662 10.9442C67.7865 10.8379 67.4366 10.6256 67.0738 10.4583C67.0378 10.4959 67.0018 10.5333 66.9658 10.5709C67.0579 10.6997 67.1355 10.8426 67.2447 10.9554C67.7074 11.4339 68.2152 11.8751 68.6321 12.39C68.8153 12.6159 68.8204 12.9853 68.9066 13.2899C68.6091 13.3013 68.3099 13.3373 68.0152 13.316C67.8303 13.3028 67.6521 13.2031 67.3984 13.2547C67.6648 13.5446 67.9317 13.8346 68.3369 14.2755C67.8639 14.3954 67.5208 14.5205 67.1676 14.5622C66.7937 14.6067 66.41 14.5723 65.9666 14.5723C66.3665 15.0544 66.7127 15.4721 67.1504 16C65.8048 15.7347 62.3412 13.1946 62.1127 12.3656C62.6497 12.7637 63.1567 13.1396 63.664 13.5153C63.7037 13.4792 63.7433 13.443 63.783 13.4069Z" fill="white"/>
</svg>
