<?xml version="1.0" encoding="UTF-8"?> <svg xmlns="http://www.w3.org/2000/svg" width="25" height="40" viewBox="0 0 25 40" fill="none"><path fill-rule="evenodd" clip-rule="evenodd" d="M21.4419 4.01695L24.0647 6.63971L23.0272 18.0104L24.0647 29.381L21.4419 32.0038H2.62277L0 29.381L1.03751 18.0104L0 6.63971L2.62277 4.01695H7.11165C7.24765 2.84008 7.83849 1.76306 8.75795 1.016C9.6774 0.26893 10.8526 -0.0889459 12.0323 0.0188284C13.2121 -0.0889459 14.3873 0.26893 15.3067 1.016C16.2262 1.76306 16.817 2.84008 16.953 4.01695H21.4419ZM9.03375 6.016H3.45037L2.07103 7.39136L3.03657 18.0104V18.1013L2.67774 22.0085H21.3919L21.0281 18.0104V17.9194L21.9896 7.39136L20.6143 6.016H15.0309V5.01647C15.0813 4.61064 15.0385 4.19866 14.9056 3.81189C14.7728 3.42512 14.5534 3.07378 14.2642 2.7846C13.975 2.49543 13.6237 2.27606 13.2369 2.14319C12.8502 2.01033 12.4382 1.96747 12.0323 2.01789C11.6265 1.96747 11.2145 2.01033 10.8277 2.14319C10.441 2.27606 10.0896 2.49543 9.80046 2.7846C9.51129 3.07378 9.29191 3.42512 9.15905 3.81189C9.02618 4.19866 8.98333 4.61064 9.03375 5.01647V6.016ZM3.45037 30.0047H20.6143L21.9896 28.6294L21.5698 24.0075H2.49582L2.07502 28.6294L3.45037 30.0047ZM11.0327 33.0032H13.0318C13.0318 37.514 17.2298 38.0008 19.0289 38.0008V39.9999C14.1712 39.9999 11.0327 37.2532 11.0327 33.0032ZM10.0333 9.01465H5.03564V11.0137H10.0333V9.01465ZM5.03564 17.0107H10.0333V19.0098H5.03564V17.0107ZM8.03423 13.0127H5.03564V15.0118H8.03423V13.0127ZM11.0327 4.01685H13.0327V6.01685H11.0327V4.01685Z" fill="#1E6BD0"></path></svg> 