<?xml version="1.0" encoding="UTF-8"?> <svg xmlns="http://www.w3.org/2000/svg" width="38" height="40" viewBox="0 0 38 40" fill="none"><path fill-rule="evenodd" clip-rule="evenodd" d="M19.6152 7.2776L19.1208 17.4328L25.1592 23.0944L26.596 21.5968L22.1336 16.4016L21.6904 7.2776H19.6152ZM7.4496 7.7216L8.1928 13.096L5.7024 14.7368L6.2336 16.3768C6.9976 18.7344 8.0048 21.0064 9.2424 23.1528C10.48 25.2992 11.944 27.304 13.6048 29.1424L14.7592 30.4208L17.4272 29.0832L21.7096 32.4136L19.1504 36.8456C14.1008 33.5976 9.9992 29.9104 6.8816 24.5096C3.7672 19.1168 2.6232 13.716 2.3344 7.7224L7.4496 7.7216ZM10.6304 14.2016L9.4216 5.4576L0 5.4584C0.108 12.7864 1.2048 19.2048 4.9208 25.6424C8.6416 32.0872 13.6456 36.2384 19.9432 40L24.6552 31.8384L17.688 26.42L15.284 27.6256C13.7152 25.8888 12.3512 24.0168 11.2032 22.0224C10.0496 20.024 9.1072 17.9024 8.3872 15.6792L10.6304 14.2016ZM15.5032 3.1736C16.7664 2.7008 18.1176 2.3968 19.528 2.2912V4.316H21.7768V2.292C25.3792 2.5648 28.6192 4.1392 31.0248 6.5448C33.4304 8.9512 35.0048 12.1904 35.2784 15.7936H33.2544V18.0424H35.2784C35.0712 20.7768 34.1176 23.3008 32.62 25.4072C30.8696 27.8704 28.3784 29.7704 25.472 30.7808L26.2096 32.8984C29.56 31.7344 32.4312 29.5448 34.4472 26.708C36.4128 23.9424 37.5696 20.5624 37.5696 16.9192C37.5696 12.248 35.676 8.0184 32.6144 4.9568C29.5536 1.8936 25.3232 0 20.652 0C18.5728 0 16.5728 0.38 14.7208 1.0736C12.8016 1.7928 11.048 2.8504 9.5344 4.1712L11.0096 5.8584C12.3232 4.7128 13.8424 3.796 15.5032 3.1736Z" fill="#1E6BD0"></path></svg> 